<?xml version="1.0" encoding="UTF-8"?>
<svg id="Capa_1" xmlns="http://www.w3.org/2000/svg" viewBox="0 0 37 27.4">
  <defs>
    <style>
      .cls-1 {
        fill: #a57f2c;
        fill-rule: evenodd;
      }
    </style>
  </defs>
  <path class="cls-1" d="M17.45,7.39c.93,0,1.72.11,2.26.26.93.26,1.72.71,2.4,1.39.65.63,1.15,1.46,1.51,2.39.32.97.5,2.13.5,3.55,0,1.24-.14,2.28-.46,3.18-.4,1.08-.97,1.95-1.72,2.62-.54.52-1.29.9-2.23,1.2-.61.19-1.36.23-2.26.26v-2.47c.39-.04.68-.08.93-.15.5-.11.93-.3,1.29-.6.32-.3.61-.78.83-1.46.21-.68.32-1.57.32-2.73s-.11-2.02-.32-2.66c-.22-.6-.5-1.09-.9-1.42-.39-.37-.9-.6-1.47-.71-.18-.04-.39-.07-.68-.11v-2.54ZM10.84,7.35h5.85c.25,0,.51,0,.76.04v2.54c-.5-.04-1.15-.04-1.97-.04h-1.44v9.87h3.41v2.47c-.18,0-.4.04-.57.04h-6.03V7.35Z"/>
  <polygon class="cls-1" points="28.12 18.06 28.12 27.4 25.34 27.4 25.34 13.03 28.23 13.03 34.26 22.6 34.26 13.03 37 13.03 37 27.4 34.03 27.4 28.12 18.06"/>
  <polygon class="cls-1" points="2.57 8.66 2.57 12.89 9.71 12.89 9.71 15.49 0 15.49 0 0 9.5 0 9.5 2.64 2.57 2.64 2.57 6.06 9.02 6.06 9.02 8.66 2.57 8.66"/>
</svg>