<?xml version="1.0" encoding="UTF-8"?>
<svg id="Capa_2" data-name="Capa 2" xmlns="http://www.w3.org/2000/svg" viewBox="0 0 237.7 85.59">
  <defs>
    <style>
      .cls-1, .cls-2 {
        fill: #fff;
      }

      .cls-2, .cls-3 {
        fill-rule: evenodd;
      }

      .cls-3 {
        fill: #a57f2c;
      }
    </style>
  </defs>
  <g id="Capa_2-2" data-name="Capa 2">
    <g>
      <g>
        <path class="cls-3" d="M34.3,14.17c1.79,0,3.3.21,4.33.5,1.79.5,3.3,1.36,4.61,2.66,1.24,1.21,2.2,2.79,2.89,4.58.61,1.87.96,4.09.96,6.81,0,2.37-.28,4.38-.89,6.1-.76,2.08-1.86,3.73-3.3,5.02-1.04,1-2.48,1.72-4.27,2.29-1.17.36-2.62.43-4.33.5v-4.73c.76-.07,1.3-.15,1.79-.29.96-.21,1.79-.58,2.48-1.15.62-.57,1.17-1.5,1.59-2.8.41-1.3.62-3.01.62-5.24s-.21-3.88-.62-5.09c-.42-1.15-.96-2.08-1.72-2.73-.75-.72-1.72-1.15-2.82-1.36-.34-.07-.75-.14-1.3-.21v-4.88ZM21.64,14.1h11.21c.48,0,.97,0,1.45.07v4.88c-.97-.07-2.2-.07-3.78-.07h-2.76v18.94h6.54v4.73c-.34,0-.76.07-1.1.07h-11.56V14.1Z"/>
        <polygon class="cls-3" points="54.78 34.63 54.78 52.54 49.43 52.54 49.43 24.99 54.99 24.99 66.54 43.33 66.54 24.99 71.8 24.99 71.8 52.54 66.1 52.54 54.78 34.63"/>
        <polygon class="cls-3" points="5.78 16.6 5.78 24.71 19.46 24.71 19.46 29.7 .85 29.7 .85 0 19.07 0 19.07 5.07 5.78 5.07 5.78 11.62 18.14 11.62 18.14 16.6 5.78 16.6"/>
      </g>
      <g>
        <path class="cls-3" d="M235.28,68.99h0c0-.15,0-.31-.08-.47,0-.15,0-.31-.17-.46-.08-.16-.25-.32-.5-.39-.08,0-.25-.08-.34-.08v-.93h.34c.33,0,.67.08.92.23.34.16.51.31.76.55.08.23.17.47.25.7.08.24.08.47.08.78v1.79c0,.23-.08.47-.08.7,0,.15.08.31.17.39.08.08.25.16.5.16h.26c.08,0,.17-.08.26-.08q.08.08,0,.15v.23q0,.16-.08.16c-.17.23-.43.31-.68.39-.25.08-.42.16-.67.16s-.42-.08-.59-.16c-.09-.08-.17-.16-.26-.31,0,0-.08-.08-.08-.15,0,0,0-.08-.08-.16-.42.23-.76.39-1.01.54v-.78h.43c.17-.08.25-.16.42-.23.08,0,.08-.08.08-.08.09-.08.09-.16.09-.23v-1.48h-.09c-.08.08-.33.16-.58.16-.08.08-.17.08-.34.16v-.55c.09-.08.17-.08.26-.08.34-.08.5-.16.67-.23l.09-.08v-.08q.08-.07.08-.15v-.08ZM234.19,67.58c-.08,0-.18-.08-.25-.08-.25,0-.42.08-.51.08q-.17.08-.25.08c-.09.08-.17.23-.34.47-.08.15-.17.39-.34.63h-.17c-.09-.08-.17-.08-.25-.16-.09-.08-.17-.16-.17-.16.08-.08.08-.23.17-.39,0-.08.08-.24.16-.39,0-.16.09-.23.17-.23.17-.16.42-.31.76-.39.25-.16.5-.23.75-.31.08,0,.17,0,.25-.08v.93ZM234.19,72.73h-.18c-.33.16-.58.23-.83.23-.17,0-.25-.08-.42-.16-.17-.08-.34-.16-.42-.23-.17-.23-.34-.39-.42-.62-.08-.23-.17-.47-.17-.7,0-.16,0-.31.08-.47.08-.08.08-.23.17-.31.09-.08.09-.16.09-.16.16-.08.42-.15.67-.23.25-.08.5-.16.84-.23.26-.08.41-.16.59-.16v.55c-.08,0-.18.08-.33.08-.17.08-.43.16-.51.24-.08,0-.08.08-.17.16v.31c0,.31.08.54.25.7.17.16.43.23.76.23v.78Z"/>
        <g>
          <path class="cls-3" d="M7.49,63.68c.42.08.85.16,1.27.23.59.15,1.09.47,1.52.78.5.39.84.93,1.09,1.48.34.55.43,1.17.43,1.87,0,.62-.09,1.25-.26,1.71-.17.47-.42.86-.76,1.25-.25.31-.58.62-.92.78-.42.39-1.01.63-1.68.78-.17.08-.43.15-.68.15v-.62c.09,0,.17-.08.34-.08.34-.08.68-.31,1.1-.63.34-.31.67-.7.84-1.24.26-.47.34-1.09.42-1.87,0-.78-.17-1.4-.51-1.95-.26-.63-.76-1.09-1.34-1.4-.26-.16-.6-.31-.85-.39v-.86ZM1.69,64.23h0v-.39c0-.08.08-.16.08-.16h1.52c.17.08.33.08.42.08.33,0,.58-.08.84-.08h2.94v.86c-.17,0-.25-.08-.33-.08-.42-.08-.93-.16-1.43-.16-.17,0-.34,0-.42.08-.17,0-.25,0-.34.08q-.08,0-.08.08c-.08,0-.08.08-.08.08v6.55c0,.16.08.23.08.31.08.15.17.23.25.31.17.15.42.23.67.31.25,0,.59.08.84.08s.59-.08.84-.08v.62c-.5.08-1.01.16-1.6.16h-1.09c-.51,0-.92-.08-1.43-.08h-1.85s0-.08-.09-.16v-.23c.09-.08.09-.16.09-.16.25-.08.5-.08.67-.08s.34-.08.5-.08c.17-.08.25-.08.34-.23.08-.08.17-.24.17-.47,0-.46.09-.93.09-1.48v-4.29c0-.23-.09-.47-.09-.62s-.08-.31-.17-.47c-.09-.08-.26-.16-.42-.16-.25-.08-.5-.08-.92-.15Z"/>
          <path class="cls-3" d="M17.41,66.65h0c.17,0,.34,0,.5.08.17.08.25.15.34.23v.31s0,.15-.09.23c-.08.16-.17.32-.25.47-.08.16-.08.23-.17.31l-.08.08h-.08c-.17-.16-.33-.23-.5-.39-.17-.08-.42-.15-.59-.15s-.34.08-.51.23c-.08.08-.25.23-.34.39,0,0-.08.08-.08.15v3.04c0,.08,0,.23.08.23,0,.08.17.16.25.24.17,0,.34,0,.5.07.17,0,.43,0,.6.08,0,0,.08.08.08.16s-.08.16-.08.23c0,.07,0,.15-.08.15h-3.7v-.55c.08-.08.25-.08.34-.08.08,0,.25,0,.34-.07.08,0,.16-.08.16-.16.09,0,.09-.15.09-.23s.08-.31.08-.54v-2.89c0-.15-.08-.23-.25-.31-.08-.15-.34-.23-.67-.39v-.23c0-.08.09-.16.09-.16.25-.08.5-.08.76-.15.25-.08.5-.16.75-.16.26-.08.43-.15.59-.23,0,0,.09,0,.09.08v.23c0,.16,0,.31-.09.39v.39s0,.08.09.08c.33-.39.67-.7,1.09-.94.26-.15.51-.23.76-.23"/>
          <path class="cls-3" d="M20.36,71.01h0c.08,0,.25,0,.34.08.17,0,.25.08.33.16.17.15.26.23.26.39.08.16.08.24.08.39,0,.08,0,.15-.08.31,0,.15-.09.23-.17.31-.25.23-.5.31-.84.31-.08,0-.24,0-.33-.08-.08,0-.26-.08-.34-.16-.17-.23-.34-.47-.34-.78,0-.23.17-.46.34-.7.08-.08.25-.16.34-.16.17-.08.25-.08.42-.08"/>
          <path class="cls-3" d="M26.16,64.23h0v-.39c0-.08.09-.16.09-.16h1.26c.34,0,.67.08,1.18.08.42,0,.84-.08,1.17-.08h.84v.39c0,.08,0,.16-.08.16-.33.08-.59.15-.84.15-.09.08-.17.08-.25.23-.09.08-.09.16-.09.31v.78c0,.47,0,.86-.08,1.4v4.29c0,.54-.08,1.09-.17,1.56-.08.39-.25.78-.5,1.17-.26.47-.59.86-.93,1.17-.42.31-.75.54-1.17.7-.33.15-.76.23-1.09.23s-.59,0-.85-.16c-.25-.08-.42-.16-.5-.31v-.23c0-.16,0-.23.08-.39,0-.16.09-.31.09-.39.08-.15.17-.31.17-.39.17.15.34.23.6.31.25.16.42.24.67.31.25,0,.42.08.58.08.26,0,.43,0,.59-.08.17-.08.25-.16.42-.31.17-.16.25-.39.33-.54.08-.16.08-.39.17-.7v-8.26c0-.16-.08-.31-.17-.47,0-.08-.17-.23-.42-.23-.08-.08-.25-.08-.42-.16-.17,0-.42,0-.68-.08"/>
          <path class="cls-3" d="M35.57,66.65h0c.59,0,1.18.16,1.69.39.41.31.75.62,1,1.09.26.47.43.93.43,1.48,0,.62-.17,1.17-.43,1.64-.25.47-.59.86-1.09,1.17-.25.16-.5.23-.85.39-.34.08-.67.16-1,.16v-.78h.33c.34.08.67-.08.92-.23.17-.15.34-.39.42-.7.08-.23.17-.63.17-1.09,0-.62-.08-1.09-.25-1.48-.25-.47-.51-.78-.76-1.01-.25-.16-.5-.23-.84-.31v-.7h.25ZM35.33,72.96h-.08c-.59,0-1.1-.08-1.51-.31-.43-.16-.76-.39-1.02-.7-.25-.31-.41-.7-.49-1.01-.17-.39-.17-.78-.17-1.17,0-.62.08-1.09.33-1.56.25-.39.59-.7,1.01-.93.34-.23.67-.39,1.01-.47.34-.08.59-.16.93-.16v.7h-.34c-.09,0-.26,0-.34.08-.17,0-.25.08-.33.08-.25.16-.42.31-.59.63-.17.31-.25.7-.25,1.25s.08,1.09.33,1.48c.17.47.42.78.75,1.02.25.15.5.31.76.31v.78Z"/>
          <path class="cls-3" d="M44.49,66.8h0c-.08.47-.08,1.02-.16,1.64,0,.08-.09.08-.17.08h-.42c0-.32-.09-.55-.17-.7-.08-.16-.17-.32-.34-.39-.09-.08-.17-.15-.34-.15-.17-.08-.34-.08-.51-.08-.25,0-.5.08-.67.24-.17.15-.26.31-.26.54,0,.16,0,.31.08.47.08.15.26.23.51.39.25.16.58.31.92.47.51.15.84.31,1.1.54.25.16.41.31.5.55.08.23.17.47.17.7,0,.39-.17.7-.34,1.02-.25.23-.59.47-1.01.62-.34.16-.84.24-1.34.24-.17,0-.42,0-.68-.08-.17,0-.42-.08-.59-.08-.17-.08-.34-.08-.42-.16-.08-.08-.08-.31-.17-.47-.09-.23-.09-.46-.09-.7-.08-.16-.08-.39-.08-.47,0-.08.08-.08.17-.16.08,0,.17,0,.25-.08h.17c.08.39.25.62.42.86.08.23.25.39.51.47.08.07.26.15.42.15.17.08.25.08.41.08.34,0,.59-.08.76-.23.17-.16.25-.32.25-.55,0-.16,0-.31-.08-.39-.08-.15-.26-.31-.42-.39-.26-.16-.51-.31-.84-.47-.68-.23-1.1-.47-1.43-.78-.25-.31-.42-.7-.42-1.09,0-.31.08-.62.33-.86.17-.31.42-.54.75-.7.43-.15.85-.23,1.43-.23h.59c.26.08.42.08.5.08.34.07.51.07.67.07"/>
          <path class="cls-3" d="M51.63,71.24h0c.09,0,.09.08.09.08v.23q0,.08-.09.16v.16c-.25.23-.5.47-.83.62-.25.16-.58.23-.93.32-.34.08-.59.16-.84.16h-.17v-1.25c.25.07.58.16.92.16.67,0,1.26-.24,1.84-.63M48.86,66.65h.42c.59,0,1.01.08,1.35.31.25.23.5.54.67.86.17.31.26.62.33,1.01l.09.08s.08.08.16.08v.16q-.08.08-.08.15c0,.08-.08.16-.08.16-.17,0-.43.08-.76.08-.33.08-.67.08-1.09.08-.34.08-.67.08-1,.08v-.62s.08,0,.08-.08h.76c.25,0,.42,0,.51-.08,0,0,.08,0,.08-.08-.08-.24-.17-.47-.26-.7-.17-.24-.33-.39-.51-.55-.17-.16-.41-.24-.66-.24v-.7ZM48.86,66.1v-1.48c.08-.15.08-.31.17-.47.17-.23.25-.46.33-.62,0,0,.17,0,.34-.08h.67c.17-.07.33-.07.33,0q.08,0,.08.08l.08.08c-.08.16-.25.31-.42.54-.17.23-.34.47-.59.78-.25.23-.42.55-.59.78-.17.16-.33.31-.42.39ZM48.86,72.96c-.76-.08-1.35-.31-1.76-.7-.34-.32-.59-.7-.77-1.09-.16-.47-.25-.86-.25-1.33,0-.7.17-1.25.42-1.64.25-.46.59-.86,1.01-1.09.25-.16.59-.23.84-.31.17-.07.34-.07.51-.16v.7h-.08c-.34,0-.68.16-.93.47-.25.23-.34.62-.42,1.09v.08c.08,0,.08.08.17.08h1.26v.62h-.17c-.42.08-.84.08-1.18.08-.08,0-.08.08-.08.15,0,.23.08.47.25.7.08.23.25.46.42.62.26.24.51.39.76.47v1.25ZM48.86,64.62v1.48c0,.08-.08.08-.08.08,0,0-.09,0-.17-.08,0,0-.08-.08-.17-.08q-.09-.08-.17-.16c.17-.23.26-.54.42-.86.09-.16.09-.23.17-.39Z"/>
          <path class="cls-3" d="M70.98,74.83h0c-.42.39-1.01.63-1.59.78-.51.23-1.1.31-1.69.31-.41,0-.83-.08-1.25-.23-.34-.08-.75-.31-1.26-.54-.26-.16-.59-.31-.76-.47-.25-.16-.5-.31-.75-.47-.25-.16-.6-.39-1.01-.63-.17-.08-.34-.16-.59-.31-.08,0-.17,0-.25-.08v-.94h.59c.5,0,.92-.08,1.26-.31.33-.16.67-.47.92-.78.17-.39.34-.78.51-1.25.09-.39.17-.86.17-1.4s-.08-1.09-.25-1.64c-.08-.47-.34-.93-.67-1.33-.25-.47-.67-.78-1.1-1.01-.42-.16-.83-.31-1.43-.31v-.78h.25c1.01,0,1.85.23,2.6.63.68.39,1.27.93,1.68,1.64.42.7.6,1.48.6,2.34,0,.7-.09,1.4-.34,1.95-.25.54-.5,1.09-.92,1.48-.25.23-.59.55-1.02.7-.33.24-.75.47-1.17.62.18,0,.34.08.51.16.17.08.42.16.59.23.17.08.25.15.42.23.84.39,1.59.7,2.19.86.67.23,1.17.39,1.59.39.5,0,.84-.08,1.18-.16.33,0,.67-.15,1.01-.31,0,.08.08.08.08.23v.23c0,.08,0,.16-.08.16M61.81,73.19c-.17-.08-.34-.08-.59-.16-.5,0-.92-.16-1.26-.23-.42-.16-.84-.31-1.26-.55-.59-.47-1.1-1.01-1.43-1.64-.33-.7-.5-1.48-.5-2.42,0-.47.08-.93.17-1.4.17-.47.33-.93.67-1.32.34-.39.68-.78,1.18-1.09.5-.31,1-.55,1.6-.7.5-.08,1-.15,1.43-.23v.78h-.34c-.51,0-1.01.08-1.35.31-.42.16-.76.47-.93.78-.25.39-.5.78-.59,1.17-.08.39-.17.86-.17,1.33,0,.94.17,1.72.51,2.42.41.7.83,1.17,1.43,1.56.41.23.92.39,1.43.47v.94Z"/>
          <path class="cls-3" d="M68.2,67.5h0v-.31c.08-.15.08-.23.17-.23.17,0,.42-.08.75-.08s.59,0,.93-.08c.25,0,.51-.07.68-.07-.08.23-.08.62-.17,1.16v2.73c0,.23.08.39.08.47.08.23.17.47.42.63.17.15.5.15.84.23.17,0,.42-.08.67-.15.17-.08.41-.16.67-.31,0-.08.08-.16.08-.16v-.15c0-.08.09-.08.09-.16v-2.89c0-.16-.09-.23-.09-.31-.08-.08-.17-.16-.26-.16-.16-.08-.5-.08-1.01-.16v-.31c.09-.15.09-.23.09-.23.34,0,.67,0,1.01-.08h1.01c.25-.08.5-.08.58-.08v1.02l-.08,3.66c.08.08.08.15.08.23q.08.08.17.08c.17.08.25.08.42.08.17-.08.26-.08.42-.08v.39q-.08.16-.08.24c-.17,0-.34.07-.59.15-.17.08-.43.15-.68.23-.16.08-.41.08-.58.16h-.42v-.63c-.09-.16-.09-.23-.09-.31h-.08c-.42.31-.84.55-1.18.7-.34.16-.67.24-.92.24-.5,0-.92-.08-1.18-.31-.26-.16-.51-.47-.59-.71-.08-.31-.17-.62-.17-.93v-.7c0-.31,0-.54.08-.86v-.78c0-.23-.08-.47-.08-.63v-.23c-.09-.08-.17-.16-.25-.24h-.33c-.09-.08-.26-.08-.42-.08"/>
          <path class="cls-3" d="M79.97,72.26h0v.39c0,.08,0,.16-.08.16h-3.37s0-.08-.08-.16v-.23c0-.08.08-.16.08-.16.17-.08.34-.08.43-.08.08,0,.17-.08.25-.08.17-.08.25-.08.25-.16.09-.08.09-.15.09-.31v-3.58c0-.08-.09-.08-.17-.16-.08-.08-.17-.16-.33-.23-.08-.08-.26-.08-.42-.16-.09-.08-.09-.15-.09-.23q.09-.16.17-.23c.17,0,.34,0,.67-.08.25,0,.5-.08.76-.16.34-.08.59-.16.84-.23v5.07c0,.08,0,.23.09.31,0,.08.08.16.25.16.08,0,.17.08.25.08.09,0,.25,0,.42.08M79.05,64.54h0c0,.16-.09.31-.17.47,0,.16-.08.23-.25.39h-.76c-.17-.08-.25-.16-.34-.23-.09-.16-.17-.24-.17-.47v-.32c0-.08.08-.15.08-.15.09-.08.25-.16.42-.23.08-.08.26-.08.42-.08.17,0,.25,0,.43.08q.08,0,.08.08c.08,0,.08.08.17.16,0,.15.09.23.09.31Z"/>
          <path class="cls-3" d="M80.82,72.26h0c.08-.08.17-.08.25-.08s.17,0,.33-.08c.17,0,.34-.16.34-.39v-3.51c-.08-.15-.34-.39-.92-.62,0-.08,0-.15.08-.23,0-.08,0-.16.08-.16.17-.08.41-.08.67-.15.34-.08.59-.16.76-.23.25-.08.42-.16.58-.16h.08v.93h.08c.34-.31.68-.54,1.1-.7.34-.15.68-.23,1.01-.23s.67.08.92.16c.25.16.51.39.67.63.17.23.26.47.34.78.09.31.09.63.09.94v1.95c.08.31.08.55.08.7v.15l.08.08c.17.08.25.08.42.15.17,0,.33,0,.5.08v.39c0,.08-.09.16-.09.16h-3.19s-.08-.08-.08-.16v-.23c0-.08,0-.16.08-.16.17-.08.26-.08.42-.08.08,0,.17-.08.17-.08.17,0,.17-.08.25-.16v-3.19c0-.08-.08-.24-.08-.39-.08-.16-.25-.31-.33-.39-.17-.08-.25-.15-.42-.23-.17-.08-.34-.08-.59-.08-.17,0-.42,0-.67.08-.26.08-.42.23-.59.31-.09.08-.09.15-.09.15-.08.08-.08.24-.08.39v3.12c0,.16.08.23.08.31.09.08.17.08.26.15h.34c.08,0,.17.08.33.08v.39c0,.08,0,.16-.08.16h-3.19c-.09,0-.09-.08-.09-.16v-.23c0-.08,0-.16.09-.16"/>
          <path class="cls-3" d="M93.43,67.74h-2.03v3.12c0,.23,0,.39.09.47.08.24.17.39.43.47.17.08.34.15.59.15.17,0,.33,0,.5-.08.17,0,.34-.08.51-.16.09,0,.09.08,0,.16v.24c0,.15-.08.15-.08.23-.17.23-.42.39-.76.47-.25.08-.58.16-.84.16-.43,0-.68-.08-.93-.23-.25-.08-.5-.31-.59-.55-.09-.07-.17-.23-.17-.39-.08-.16-.08-.31-.08-.54v-3.51h-.09l-.92-.08v-.23c0-.08,0-.15.09-.23,0-.08,0-.15.08-.15s.25,0,.42-.08c.17,0,.25-.08.33-.08l.09-.08v-1.4c.08,0,.17-.08.34-.16.08-.08.25-.16.42-.23.08-.08.25-.16.33-.23h.34c0,.08,0,.31-.09.7v1.33h2.2c-.09.08-.09.23-.17.47v.46Z"/>
          <path class="cls-3" d="M97.72,72.26h0v.39c0,.08-.09.16-.09.16h-3.36v-.55c.17-.08.33-.08.42-.08s.17-.07.26-.07c.17-.08.25-.08.25-.16,0-.07.08-.16.08-.31v-3.58c0-.08-.08-.08-.17-.16-.09-.08-.17-.15-.34-.23-.08-.08-.25-.08-.42-.16-.08-.08-.08-.16-.08-.23q.08-.16.17-.23c.17,0,.34,0,.67-.08.25,0,.5-.08.76-.16.34-.07.58-.16.84-.23v5.06c0,.08,0,.24.08.31,0,.08.09.16.17.16.17,0,.26.07.34.07s.25,0,.42.08M96.2,63.53h0c.08,0,.17,0,.42-.08h.59c.17-.07.34-.07.42,0v.08c.09,0,.09.08.09.08-.09.16-.17.31-.42.54-.17.23-.34.47-.59.78-.17.23-.42.55-.59.78-.17.23-.34.39-.42.47q-.08,0-.17-.08c-.08,0-.17-.08-.25-.08q-.08-.08-.08-.16c.08-.23.25-.54.34-.86.17-.31.25-.54.42-.86.08-.23.17-.46.25-.62Z"/>
          <path class="cls-3" d="M98.56,72.26h0c.09-.08.17-.08.25-.08s.17,0,.34-.08c.16,0,.25-.16.33-.39v-3.51c-.08-.15-.33-.39-.92-.62,0-.08,0-.15.09-.23,0-.08,0-.16.08-.16.17-.08.43-.08.67-.15.34-.08.59-.16.76-.23.26-.08.42-.16.59-.16h.08v.93h.08c.34-.31.68-.54,1.09-.7.34-.15.67-.23,1.01-.23s.68.08.93.16c.25.16.5.39.67.63.17.23.26.47.33.78.08.31.08.63.08.94v1.95c0,.31.09.55.09.7v.15l.08.08c.17.08.26.08.43.15.17,0,.33,0,.5.08v.39c0,.08-.08.16-.08.16h-3.19s-.09-.08-.09-.16v-.23c0-.08,0-.16.09-.16.17-.08.26-.08.42-.08.09,0,.17-.08.17-.08.17,0,.17-.08.25-.16v-3.19c0-.08-.09-.24-.17-.39,0-.16-.17-.31-.26-.39-.16-.08-.25-.15-.42-.23-.17-.08-.34-.08-.59-.08s-.42,0-.67.08c-.26.08-.43.23-.59.31-.08.08-.08.15-.08.15-.08.08-.08.24-.08.39v3.12c0,.16.08.23.08.31.08.08.17.08.25.15h.34c.09,0,.17.08.34.08v.39c0,.08-.08.16-.08.16h-3.2c-.09,0-.09-.08-.09-.16v-.23c0-.08,0-.16.09-.16"/>
          <path class="cls-3" d="M115.88,63.45h.17c.76,0,1.51.16,2.1.39.59.24,1.09.63,1.52,1.01.42.39.75.93.93,1.48.25.55.33,1.09.33,1.72s-.08,1.24-.25,1.72c-.17.54-.42.93-.76,1.4-.34.39-.76.7-1.17,1.01-.42.31-.93.47-1.43.63-.51.16-1.02.23-1.43.23v-.86c.08.08.25.08.41.08.34,0,.68-.08.93-.15.25-.08.5-.16.75-.32.42-.39.76-.85.93-1.4.25-.55.33-1.17.33-1.8,0-.54-.08-1.09-.17-1.56-.17-.47-.34-.94-.59-1.33-.34-.39-.68-.7-1.01-1.01-.5-.23-1.01-.46-1.59-.46v-.79ZM115.71,73.04h0c-.76,0-1.52-.16-2.1-.32-.59-.23-1.1-.54-1.52-1.01-.5-.47-.84-1.01-1.01-1.64-.25-.54-.33-1.25-.33-1.87,0-1.17.33-2.1,1-2.96.34-.31.68-.62,1.18-.93.42-.23.93-.47,1.43-.62.5-.16,1.01-.24,1.52-.24v.79h-.42c-.51,0-.93.07-1.34.23-.34.23-.68.47-.93.86-.25.31-.42.7-.5,1.09-.17.47-.25.94-.25,1.41,0,.54.08,1.09.25,1.56.17.55.33,1.02.67,1.4.26.39.68.78,1.1,1.01.25.15.58.23.84.32.17.07.34.07.59.07v.86h-.17Z"/>
          <path class="cls-3" d="M122.19,72.8h0c-.09,0-.09-.08-.09-.16v-.23c0-.08,0-.16.09-.16.17-.08.25-.08.34-.08.17,0,.25-.08.34-.08.08-.08.16-.08.16-.16.08-.07.08-.15.08-.23,0-.16.08-.31.08-.62v-6.39c0-.08,0-.16-.08-.16v-.23q-.08-.08-.16-.16c-.08,0-.25,0-.42-.08-.16,0-.34,0-.59-.08v-.31q0-.08.08-.16c.26,0,.6-.08.93-.08.33-.08.59-.15.92-.23.26-.08.51-.15.67-.23l.08.08q.08.08.08.15c-.08.08-.08.16-.08.23s-.08.16-.08.31v7.72c0,.15,0,.31.08.39.08.15.17.23.34.23,0,0,.09,0,.17.08h.17c.08,0,.16,0,.33.08v.39c-.08.08-.08.16-.08.16h-3.37Z"/>
          <path class="cls-3" d="M130.09,68.99h0v-.47c0-.15-.09-.31-.17-.46-.16-.16-.33-.32-.5-.39-.17,0-.25-.08-.34-.08v-.93h.25c.42,0,.76.08,1.01.23.26.16.51.31.68.55.17.23.25.47.33.7,0,.24.08.47.08.78,0,.23,0,.54-.08.85v1.64c0,.15,0,.31.08.39.08.08.25.16.51.16h.34c.09,0,.17-.08.25-.08v.39l-.08.16c-.17.23-.43.31-.68.39-.26.08-.5.16-.67.16-.25,0-.5-.08-.59-.16-.17-.08-.26-.16-.34-.31v-.15c-.08,0-.08-.08-.08-.16h-.09c-.33.23-.67.39-.92.54v-.78h.42c.08-.08.25-.16.34-.23.08,0,.17-.08.17-.08,0-.08,0-.16.09-.23v-1.48h-.09c-.17.08-.33.16-.58.16-.17.08-.25.08-.34.16v-.55c.08-.08.16-.08.25-.08.25-.08.5-.16.67-.23v-.08l.09-.08v-.23ZM129.09,67.58c-.18,0-.25-.08-.34-.08-.16,0-.33.08-.5.08-.08.08-.17.08-.17.08-.08.08-.25.23-.34.47-.08.15-.25.39-.34.63h-.17c-.16-.08-.25-.08-.33-.16-.08-.08-.08-.16-.08-.16,0-.08,0-.23.08-.39.08-.08.08-.24.17-.39.08-.16.08-.23.16-.23.26-.16.51-.31.76-.39.25-.16.5-.23.75-.31.09,0,.26,0,.34-.08v.93ZM129.09,72.73h-.18c-.32.16-.67.23-.84.23s-.34-.08-.5-.16c-.17-.08-.25-.16-.42-.23-.17-.23-.33-.39-.42-.62-.09-.23-.17-.47-.17-.7,0-.16.08-.31.08-.47.09-.08.17-.23.17-.31.08-.08.08-.16.17-.16.17-.08.34-.15.59-.23.25-.08.59-.16.92-.23.17-.08.34-.16.6-.16v.55c-.18,0-.25.08-.34.08-.25.08-.42.16-.59.24,0,0-.08.08-.08.16-.08.15-.08.23-.08.31,0,.31.08.54.33.7.17.16.42.23.77.23v.78Z"/>
          <path class="cls-3" d="M137.83,66.8h0c-.08.47-.08,1.02-.17,1.64,0,.08-.08.08-.17.08h-.43c0-.32-.08-.55-.16-.7-.08-.16-.17-.32-.34-.39-.09-.08-.17-.15-.34-.15-.17-.08-.34-.08-.5-.08-.25,0-.5.08-.67.24-.17.15-.26.31-.26.54,0,.16,0,.31.08.47.08.15.25.23.51.39.25.16.59.31.92.47.51.15.84.31,1.09.54.25.16.42.31.5.55.08.23.17.47.17.7,0,.39-.17.7-.33,1.02-.25.23-.59.47-1.01.62-.34.16-.84.24-1.34.24-.17,0-.43,0-.68-.08-.17,0-.42-.08-.59-.08-.17-.08-.33-.08-.42-.16-.08-.08-.08-.31-.16-.47-.09-.23-.09-.46-.09-.7-.08-.16-.08-.39-.08-.47,0-.08.08-.08.18-.16.08,0,.16,0,.25-.08h.16c.09.39.25.62.42.86.09.23.25.39.5.47.08.07.25.15.42.15.17.08.26.08.42.08.34,0,.59-.08.75-.23.17-.16.25-.32.25-.55,0-.16,0-.31-.08-.39-.08-.15-.25-.31-.42-.39-.25-.16-.5-.31-.84-.47-.68-.23-1.1-.47-1.43-.78-.25-.31-.42-.7-.42-1.09,0-.31.08-.62.34-.86.17-.31.41-.54.75-.7.43-.15.84-.23,1.43-.23h.59c.26.08.34.08.5.08.34.07.51.07.68.07"/>
          <path class="cls-3" d="M144.97,71.79h0c-.25.31-.5.55-.84.7-.25.15-.59.31-.93.31-.25.08-.5.16-.75.16-1.1,0-1.85-.39-2.35-1.09-.26-.24-.42-.55-.5-.86-.08-.39-.17-.7-.17-1.09,0-.62.17-1.09.42-1.56.26-.47.68-.78,1.27-1.09.25-.16.5-.31.75-.39.25-.08.51-.15.67-.15.25-.08.42-.08.59-.08.34,0,.59,0,.84.08.25.08.42.08.59.15.08.08.25.16.25.23.08,0,.17.08.17.16v.31c-.08.16-.17.23-.25.39-.17.16-.25.23-.34.31h-.17c-.17-.15-.25-.23-.41-.39-.26-.08-.43-.23-.68-.31-.17-.08-.42-.15-.75-.15s-.68.08-.93.31c-.25.16-.41.39-.5.7-.08.31-.17.62-.17.94s.08.62.17.93c.08.31.25.55.41.78.42.47,1.02.7,1.77.7.34.08.59,0,.93-.08.25-.16.59-.31.92-.62l.08.08.09.08c0,.08-.09.23-.09.31,0,.16-.08.23-.08.23"/>
          <path class="cls-3" d="M149.85,66.65h0c.59,0,1.18.16,1.68.39.42.31.76.62,1.01,1.09.25.47.41.93.41,1.48,0,.62-.16,1.17-.41,1.64-.25.47-.6.86-1.1,1.17-.25.16-.5.23-.83.39-.34.08-.68.16-1.01.16v-.78h.33c.34.08.68-.08.93-.23.17-.15.34-.39.42-.7.09-.23.17-.63.17-1.09,0-.62-.08-1.09-.25-1.48-.25-.47-.5-.78-.75-1.01-.26-.16-.51-.23-.84-.31v-.7h.25ZM149.6,72.96h-.08c-.59,0-1.1-.08-1.51-.31-.42-.16-.75-.39-1.01-.7-.25-.31-.42-.7-.5-1.01-.17-.39-.17-.78-.17-1.17,0-.62.08-1.09.33-1.56.25-.39.59-.7,1.01-.93.33-.23.67-.39,1.01-.47.34-.08.59-.16.92-.16v.7h-.33c-.09,0-.25,0-.34.08-.17,0-.25.08-.33.08-.25.16-.42.31-.59.63-.17.31-.25.7-.25,1.25s.08,1.09.33,1.48c.17.47.42.78.76,1.02.25.15.5.31.75.31v.78Z"/>
          <path class="cls-3" d="M157.92,68.99h0v-.47c0-.15-.08-.31-.17-.46-.17-.16-.33-.32-.5-.39-.17,0-.26-.08-.43-.08v-.93h.34c.43,0,.67.08,1.01.23.25.16.5.31.68.55.17.23.26.47.26.7.08.24.08.47.08.78v2.49c0,.15,0,.31.08.39.08.08.25.16.5.16h.34s.17-.08.25-.08v.15c0,.08,0,.16-.08.23v.16c-.26.23-.43.31-.68.39-.25.08-.5.16-.67.16-.26,0-.51-.08-.59-.16-.17-.08-.25-.16-.34-.31,0,0,0-.08-.08-.15v-.16h-.08c-.33.23-.67.39-1.01.54v-.78h.43c.17-.08.34-.16.42-.23.08,0,.08-.08.16-.08v-.23c.08-.08.08-.23.08-.39v-1.01l-.08-.08c-.16.08-.33.16-.58.16-.17.08-.26.08-.43.16v-.55c.08-.08.25-.08.34-.08.26-.08.51-.16.59-.23.08,0,.08-.08.08-.08l.08-.08v-.23ZM156.83,67.58c-.09,0-.17-.08-.26-.08-.25,0-.41.08-.5.08-.09.08-.17.08-.17.08-.17.08-.25.23-.34.47-.18.15-.25.39-.34.63h-.25c-.08-.08-.17-.08-.25-.16-.08-.08-.08-.16-.08-.16,0-.08,0-.23.08-.39.08-.08.08-.24.17-.39.08-.16.08-.23.17-.23.26-.16.51-.31.76-.39.25-.16.5-.23.75-.31.08,0,.17,0,.26-.08v.93ZM156.83,72.73h-.17c-.25.16-.58.23-.75.23s-.34-.08-.52-.16c-.16-.08-.33-.16-.41-.23-.17-.23-.33-.39-.42-.62-.08-.23-.17-.47-.17-.7,0-.16.08-.31.08-.47.08-.08.17-.23.17-.31.08-.08.08-.16.16-.16.17-.08.34-.15.58-.23.26-.08.6-.16.85-.23.25-.08.41-.16.59-.16v.55c-.09,0-.17.08-.26.08-.25.08-.41.16-.58.24,0,0-.08.08-.08.16-.08.15-.08.23-.08.31,0,.31.08.54.25.7.25.16.5.23.75.23v.78Z"/>
          <path class="cls-3" d="M164.4,66.65c.33,0,.5,0,.75.08.26.08.43.15.68.23.17.08.25.08.42.08s.33.08.51.08c.25,0,.42-.08.59-.16.17-.08.24-.16.33-.23q.08,0,.16.08c.09,0,.09.08.09.08v.24c-.09.16-.09.23-.17.39-.08.08-.08.16-.17.23-.08.08-.16.16-.24.16-.09.08-.17.08-.34.08h-.42v.31c.08.08.08.16.08.23,0,.55-.16.93-.33,1.25-.17.31-.33.55-.67.7-.25.23-.59.39-.84.47-.16,0-.25.08-.41.08v-.62q.08,0,.16-.08c.09,0,.25-.08.33-.15.08-.08.17-.24.25-.47.09-.15.18-.47.18-.7,0-.31-.08-.55-.18-.86-.08-.23-.25-.39-.41-.63-.08,0-.17-.08-.33-.15v-.7ZM164.4,71.87c.16,0,.33,0,.5.08.34,0,.68,0,1.02.08.25,0,.5.08.67.15.34.08.59.24.85.47.16.23.25.54.25.93,0,.47-.17.94-.5,1.4-.34.39-.84.78-1.43,1.09-.34.16-.68.23-1.01.32h-.33v-.78h.08c.41,0,.84-.08,1.09-.23.34-.08.51-.23.67-.46.17-.24.25-.47.25-.63,0-.23-.08-.47-.25-.62-.08-.15-.25-.31-.59-.39-.17-.08-.42-.15-.76-.15h-.5v-1.25ZM164.32,66.65h.09v.7c-.17,0-.34-.08-.59-.08-.33,0-.59.15-.76.39-.25.23-.34.54-.34.93,0,.31,0,.62.17.86.08.31.25.55.42.7.25.15.5.23.93.23h.17v.62c-.09,0-.26.08-.34.08h-.43c-.08,0-.08.08-.16.08-.09.08-.17.15-.17.23,0,.16.08.23.17.31.16.08.33.16.5.16h.42v1.25c-.17-.08-.42-.08-.68-.08-.08,0-.25.08-.34.08-.08,0-.16.08-.16.08-.34.15-.51.39-.67.54-.08.16-.17.31-.17.54,0,.32.17.63.42.86.25.15.5.31.75.39.25.08.59.08.85.08v.78c-.17.08-.34.08-.59.08-.33,0-.76-.08-1.09-.16-.25-.08-.59-.23-.84-.39-.25-.23-.5-.47-.59-.7-.17-.23-.17-.47-.17-.62v-.47c.08-.08.08-.16.08-.16.08-.08.25-.23.5-.47.25-.16.59-.39.93-.63q.08,0,0,0c-.25-.16-.51-.23-.59-.39-.17-.15-.25-.31-.34-.47q0-.08.09-.16v-.16c.08-.08.25-.15.33-.23.17-.08.25-.08.42-.16.08-.08.25-.15.25-.23.08,0,.08-.08,0-.08-.42-.16-.76-.39-1.01-.7-.26-.31-.42-.78-.42-1.32,0-.31.08-.62.17-.94.17-.31.42-.55.76-.78.08-.08.25-.16.5-.31.25-.08.5-.16.75-.23.34-.08.51-.08.76-.08Z"/>
          <path class="cls-3" d="M172.3,68.99h0c0-.15-.08-.31-.08-.47s-.09-.31-.17-.46c-.08-.16-.34-.32-.5-.39-.08,0-.25-.08-.34-.08v-.93h.34c.33,0,.68.08.93.23.25.16.51.31.67.55.17.23.25.47.33.7.09.24.09.47.09.78v.85c0,.31-.09.63-.09.94v.7c0,.15.09.31.17.39.09.08.26.16.42.16h.34c.08,0,.16-.08.25-.08v.39c0,.16-.08.16-.08.16-.16.23-.41.31-.67.39-.26.08-.51.16-.68.16-.24,0-.41-.08-.59-.16-.17-.08-.25-.16-.25-.31-.08,0-.08-.08-.08-.15,0,0-.08-.08-.08-.16h-.09c-.34.23-.67.39-.92.54v-.78h.42c.17-.08.25-.16.34-.23.08,0,.17-.08.17-.08,0-.08.09-.16.09-.23v-1.48h-.09c-.17.08-.34.16-.59.16-.08.08-.25.08-.34.16v-.55c.08-.08.17-.08.25-.08.25-.08.5-.16.67-.23,0,0,0-.08.09-.08v-.08q0-.07.08-.15v-.08ZM171.21,67.58c-.08,0-.25-.08-.34-.08-.17,0-.34.08-.51.08-.07.08-.16.08-.16.08-.08.08-.25.23-.34.47-.08.15-.25.39-.33.63h-.17c-.08-.08-.17-.08-.33-.16-.08-.08-.08-.16-.08-.16,0-.08.08-.23.08-.39.09-.08.17-.24.17-.39.08-.16.17-.23.17-.23.25-.16.5-.31.76-.39.34-.16.59-.23.84-.31.08,0,.17,0,.25-.08v.93ZM171.21,72.73h-.17c-.33.16-.58.23-.84.23-.17,0-.34-.08-.42-.16-.17-.08-.34-.16-.5-.23-.16-.23-.25-.39-.33-.62-.17-.23-.17-.47-.17-.7,0-.16,0-.31.09-.47,0-.08.08-.23.17-.31,0-.08.09-.16.09-.16.16-.08.33-.15.67-.23.25-.08.51-.16.85-.23.17-.08.42-.16.59-.16v.55c-.17,0-.25.08-.34.08-.25.08-.42.16-.51.24-.07,0-.07.08-.16.16,0,.15-.08.23-.08.31,0,.31.17.54.34.7.17.16.42.23.75.23v.78Z"/>
          <path class="cls-3" d="M179.03,64.23h0s-.08-.08-.08-.16v-.23c.08-.08.08-.16.08-.16h1.76c.34,0,.84.08,1.34.08.08.08.08.23.17.39,0,.16.08.32.17.47.17.31.34.7.5,1.09.25.47.5.94.76,1.4.25.47.51.94.67,1.4.25.47.42.78.58,1.09.17.39.34.55.34.62q.09.08.09,0c.08-.08.17-.31.33-.62.17-.31.42-.7.67-1.17.25-.47.42-.94.67-1.4.26-.55.52-1.01.77-1.48.25-.39.42-.78.5-1.09.08-.16.16-.32.16-.39.08-.15.08-.23.08-.31.59,0,1.02-.08,1.43-.08h1.68s.08.08.08.16v.23c0,.08-.08.16-.08.16-.5.08-.83.15-1.09.23-.17,0-.26.08-.34.15-.08.08-.08.16-.08.39v2.34c0,.47,0,1.01.08,1.56v1.4c0,.47.08.78.08.94,0,.31.09.47.17.62.08.07.25.15.51.23.08,0,.25.08.33.08.17,0,.33,0,.58.08v.39c0,.08,0,.16-.08.16h-4.45s-.09-.08-.09-.16v-.23c0-.08.09-.16.09-.16.17-.08.33-.08.5-.08.17-.08.34-.08.42-.15.16,0,.25-.08.34-.23,0-.08.08-.23.08-.31v-3.43c0-.47,0-.94-.08-1.32v-1.09h-.09c-.08.23-.25.55-.41,1.01-.25.39-.5.93-.75,1.48-.35.54-.6,1.17-.93,1.71-.25.63-.5,1.17-.75,1.71-.25.47-.42.86-.5,1.17q-.09,0-.26.08h-.41c-.09-.23-.17-.62-.42-1.09-.17-.39-.34-.93-.6-1.48-.25-.55-.58-1.09-.83-1.64-.25-.54-.51-1.09-.76-1.56-.17-.55-.42-.94-.51-1.25q-.08-.08-.16,0v1.25c-.08.47-.08.93-.17,1.4,0,.55,0,1.01-.08,1.48v1.33c0,.15,0,.39.08.47,0,.16.17.23.42.31.25.08.67.15,1.1.23.08,0,.08.08.08.16v.23c-.08.08-.08.16-.08.16h-4.12c-.08,0-.08-.08-.08-.16v-.23c0-.08,0-.16.08-.16.34-.08.68-.08.84-.15.25-.08.42-.16.5-.31.08-.16.08-.31.17-.62,0-.23.08-.63.08-1.01.09-.39.09-.78.17-1.25,0-.47.09-.94.09-1.4.08-.47.08-.93.17-1.32,0-.47.08-.78.08-1.09,0-.15-.08-.23-.08-.39-.08-.08-.17-.16-.33-.23-.17,0-.25-.08-.5-.08-.17-.08-.42-.08-.67-.15"/>
          <path class="cls-3" d="M196.69,66.65h0c.59,0,1.18.16,1.59.39.5.31.84.62,1.1,1.09.25.47.41.93.41,1.48,0,.62-.17,1.17-.41,1.64-.25.47-.6.86-1.1,1.17-.25.16-.5.23-.84.39-.34.08-.67.16-1,.16v-.78h.33c.34.08.67-.08.93-.23.17-.15.34-.39.42-.7.08-.23.17-.63.17-1.09,0-.62-.08-1.09-.25-1.48-.25-.47-.5-.78-.84-1.01-.17-.16-.5-.23-.75-.31v-.7h.25ZM196.44,72.96h-.09c-.58,0-1.09-.08-1.51-.31-.42-.16-.76-.39-1.01-.7-.26-.31-.42-.7-.51-1.01-.17-.39-.25-.78-.25-1.17.08-.62.17-1.09.42-1.56.26-.39.59-.7,1.01-.93.34-.23.68-.39,1.01-.47.33-.08.59-.16.93-.16v.7h-.34c-.08,0-.26,0-.34.08-.17,0-.25.08-.34.08-.25.16-.42.31-.59.63-.17.31-.25.7-.25,1.25s.08,1.09.25,1.48c.25.47.5.78.84,1.02.26.15.51.31.77.31v.78Z"/>
          <path class="cls-3" d="M201.06,72.26h0c.09-.08.17-.08.25-.08.17,0,.25,0,.33-.08.17,0,.34-.16.34-.39v-3.51c0-.15-.34-.39-.84-.62-.09-.08-.09-.15,0-.23,0-.08,0-.16.08-.16.25-.08.42-.08.75-.15.26-.08.5-.16.76-.23.17-.08.42-.16.5-.16h.08v.93h.08c.34-.31.76-.54,1.1-.7.34-.15.67-.23,1.01-.23s.68.08.93.16c.25.16.5.39.67.63.16.23.26.47.34.78.07.31.07.63.07.94v1.01c0,.31.09.62.09.93v.86c.08,0,.08.08.08.08.16.08.34.08.41.15.17,0,.33,0,.51.08v.39c0,.08-.09.16-.09.16h-3.2s0-.08-.08-.16v-.23c0-.08.08-.16.08-.16.17-.08.25-.08.42-.08.09,0,.17-.08.26-.08s.17-.08.17-.16c0-.07.09-.31.09-.54v-1.95c-.09-.23-.09-.47-.09-.7,0-.08-.09-.24-.09-.39-.08-.16-.17-.31-.34-.39-.08-.08-.25-.15-.42-.23-.17-.08-.33-.08-.59-.08-.17,0-.42,0-.67.08-.26.08-.42.23-.59.31,0,.08-.09.15-.09.15-.08.08-.08.24-.08.39v3.12c.08.16.08.23.08.31.09.08.17.08.26.15h.33c.09,0,.17.08.34.08v.39c0,.08,0,.16-.08.16h-3.2s-.08-.08-.08-.16v-.23c0-.08.08-.16.08-.16"/>
          <path class="cls-3" d="M215.27,71.79h0c-.25.31-.5.55-.84.7-.25.15-.59.31-.85.31-.33.08-.58.16-.83.16-1.02,0-1.85-.39-2.35-1.09-.26-.24-.43-.55-.51-.86-.08-.39-.17-.7-.17-1.09,0-.62.17-1.09.42-1.56.34-.47.67-.78,1.26-1.09.25-.16.51-.31.76-.39.25-.08.51-.15.76-.15.17-.08.42-.08.5-.08.33,0,.59,0,.85.08.25.08.42.08.59.15.08.08.25.16.33.23,0,0,.08.08.17.16v.16q-.09.08-.09.15c-.08.16-.17.23-.25.39-.17.16-.25.23-.33.31h-.17c-.08-.15-.25-.23-.42-.39-.17-.08-.42-.23-.68-.31-.17-.08-.42-.15-.67-.15-.42,0-.76.08-1.02.31-.25.16-.41.39-.5.7-.08.31-.17.62-.17.94s.08.62.17.93c.08.31.25.55.42.78.5.47,1.01.7,1.77.7.33.08.59,0,.93-.08.34-.16.58-.31.92-.62.09,0,.09.08.09.08.08,0,.08.08.08.08,0,.08,0,.23-.08.31,0,.16,0,.23-.09.23"/>
          <path class="cls-3" d="M219.98,68.99h0v-.47c0-.15-.08-.31-.17-.46-.17-.16-.34-.32-.5-.39-.17,0-.26-.08-.34-.08v-.93h.34c.33,0,.67.08.92.23.26.16.51.31.68.55.17.23.25.47.33.7,0,.24.09.47.09.78v.85c-.09.31-.09.63-.09.94v.7c0,.15,0,.31.17.39.08.08.25.16.42.16h.34c.08,0,.17-.08.25-.08v.39c0,.16-.09.16-.09.16-.17.23-.42.31-.67.39-.25.08-.5.16-.67.16-.26,0-.43-.08-.59-.16-.18-.08-.26-.16-.26-.31-.09,0-.09-.08-.09-.15-.08,0-.08-.08-.08-.16h-.08c-.34.23-.67.39-.92.54v-.78h.42c.08-.08.25-.16.34-.23.08,0,.17-.08.17-.08,0-.08.08-.16.08-.23v-1.48h-.08c-.17.08-.34.16-.59.16-.09.08-.26.08-.34.16v-.55c.08-.08.17-.08.25-.08.25-.08.5-.16.67-.23,0,0,0-.08.08-.08v-.31ZM218.97,67.58c-.08,0-.25-.08-.34-.08-.17,0-.33.08-.5.08-.08.08-.17.08-.17.08-.08.08-.25.23-.33.47-.09.15-.25.39-.35.63h-.16c-.09-.08-.26-.08-.34-.16-.08-.08-.08-.16-.08-.16,0-.08.08-.23.08-.39.09-.08.17-.24.17-.39.08-.16.17-.23.17-.23.25-.16.5-.31.76-.39.33-.16.58-.23.84-.31.08,0,.17,0,.25-.08v.93ZM218.97,72.73h-.17c-.34.16-.59.23-.84.23-.17,0-.33-.08-.5-.16-.08-.08-.25-.16-.43-.23-.17-.23-.25-.39-.42-.62-.08-.23-.08-.47-.08-.7,0-.16,0-.31.08-.47,0-.08.08-.23.16-.31,0-.08.09-.16.09-.16.17-.08.34-.15.67-.23.26-.08.51-.16.84-.23.17-.08.34-.16.59-.16v.55c-.17,0-.25.08-.34.08-.25.08-.42.16-.5.24-.08,0-.17.08-.17.16,0,.15-.08.23-.08.31,0,.31.08.54.33.7.17.16.42.23.76.23v.78Z"/>
          <path class="cls-3" d="M230.74,71.94h0v.39c-.08.08-.08.15-.08.15-.17.08-.42.16-.67.23-.34.08-.59.16-.84.16-.34.08-.5.08-.67.16l-.08-.08q0-.08-.08-.16v-.78h-.08c-.25.15-.58.31-.84.47-.25.16-.51.23-.75.31v-1.01c.08,0,.25.08.33.08.25,0,.5-.08.68-.16.25-.08.42-.16.58-.31,0,0,.08-.08.08-.15v-2.88c0-.23-.08-.47-.25-.62-.17-.16-.42-.23-.67-.23-.17-.08-.42-.08-.67-.08h-.08v-.7c.33-.08.67-.08,1.01-.08h.33c.08,0,.25,0,.34.08v-.08q.08,0,.08-.08v-1.64c-.08-.16-.08-.23-.08-.39,0-.08,0-.23-.08-.23,0-.08-.08-.16-.17-.16-.17-.08-.34-.08-.5-.15h-.59c0-.08-.08-.16-.08-.23s0-.16.08-.23q0-.08.08-.15c.34,0,.68,0,1.1-.08.34,0,.67-.08,1.01-.16.26,0,.51-.08.67-.16,0,0,.09.08.09.16v.16c-.09.08-.09.23-.17.31v1.95c-.08.23-.08.62-.08,1.09v4.83c0,.23.08.31.08.39.08,0,.17.07.26.07h.76ZM226.62,72.8c-.25.08-.42.08-.59.08-.42,0-.76-.08-1.01-.16-.34-.15-.58-.39-.84-.62-.25-.31-.42-.62-.51-.93-.17-.39-.17-.78-.17-1.25s.09-.93.34-1.33c.17-.39.42-.78.84-1.01.17-.15.5-.31.84-.47.26-.15.68-.23,1.01-.31q0-.08.09-.08v.7c-.42,0-.75.15-1.01.39-.25.16-.42.39-.5.7-.17.31-.25.62-.25,1.02,0,.78.25,1.32.59,1.71.34.31.68.47,1.18.54v1.01Z"/>
          <path class="cls-3" d="M150.86,78.26h0q-.08-.08-.08-.15v-.16c0-.08.08-.15.08-.15h6.14v.08c0,.08,0,.23-.09.47,0,.15,0,.39-.08.54v.7s-.09.08-.17.08h-.41c0-.23,0-.31-.08-.47,0-.08,0-.23-.08-.31,0-.16-.09-.23-.17-.31-.08-.08-.25-.08-.42-.16h-2.19l-.08.08v.16c0,.39,0,.86-.08,1.24v1.25h.08v.08h1.51c.25,0,.42-.08.59-.08.08,0,.17,0,.25-.08.09-.08.09-.15.17-.31,0-.08.09-.31.09-.47.08,0,.17-.08.25-.08,0,0,.08,0,.17.08h.25c-.08.16-.08.23-.08.39v2.1c-.08.08-.17.08-.25.08-.17,0-.25,0-.34-.08,0-.08-.09-.16-.09-.23s0-.16-.08-.23c0-.16-.09-.24-.17-.32,0-.08-.17-.08-.26-.16h-2.02l-.08.08v1.4c0,.23.08.47.08.63s0,.31.08.39c0,.08.17.08.33.16.17,0,.34,0,.51.08h.51v.39q0,.08-.09.08h-3.78q-.09,0-.09-.08v-.23s0-.08.09-.08c.25-.08.5-.08.67-.16.17,0,.34-.08.42-.16,0-.08.08-.23.08-.39v-5.07c0-.16-.08-.31-.08-.39-.08-.08-.17-.08-.34-.15-.16,0-.42-.08-.67-.08"/>
          <path class="cls-3" d="M157.84,80.83h0v-.24c0-.08.08-.15.08-.23h.68c.25,0,.42-.08.67-.08s.42-.08.5-.08c0,.23,0,.54-.09.93v2.18c0,.16.09.32.09.39,0,.16.17.31.34.47.17.08.34.16.67.16.17,0,.34,0,.5-.08.17-.08.34-.15.51-.31.08,0,.08-.08.08-.08,0,0,.09-.08.09-.16v-2.42c0-.08,0-.15-.09-.23,0,0-.08-.08-.17-.08-.17-.08-.42-.08-.76-.15-.08-.08-.08-.16,0-.24,0-.08,0-.15.08-.23h.76c.25,0,.51,0,.76-.08h.5v.78l-.08,2.89c.08.08.08.15.08.23s.08.08.17.08h.59c.08,0,.08.08,0,.16v.16c0,.08,0,.15-.08.15-.08.08-.25.08-.42.16-.17.08-.34.08-.5.16-.17.08-.34.08-.5.15h-.34v-.7q0-.08-.09-.08c-.42.31-.67.47-1.01.63-.26.08-.5.15-.68.15-.42,0-.75-.08-1-.23-.17-.16-.34-.39-.42-.62-.09-.23-.17-.47-.09-.7v-2.34c0-.08-.08-.15-.08-.23-.09-.08-.09-.16-.17-.16h-.25c-.08-.08-.25-.08-.34-.08"/>
          <path class="cls-3" d="M164.49,84.58h.25c.08,0,.16,0,.25-.08.17,0,.26-.15.26-.31v-2.73c0-.16-.26-.39-.67-.54v-.16c0-.08.09-.16.09-.16.16-.08.33-.08.59-.15.17,0,.42-.08.59-.16.17-.08.33-.08.42-.16h.08v.78h.08c.25-.23.59-.39.84-.55.33-.15.59-.23.84-.23s.5.08.76.16c.17.16.34.31.5.47.09.16.25.39.25.63.08.23.08.54.08.78v2.11l.08.08q0,.08.08.08c.08.08.17.08.34.16h.33v.39s0,.08-.08.08h-2.53v-.08c-.09-.08-.09-.16,0-.23v-.15h.33c.08,0,.17-.08.17-.08.09,0,.17-.08.17-.15s.09-.16.09-.39v-.78c0-.31,0-.55-.09-.78v-.55c0-.08,0-.23-.08-.31-.09-.16-.17-.24-.26-.31-.08-.08-.17-.16-.33-.23-.09,0-.25-.08-.42-.08s-.42.08-.6.15c-.16.08-.34.16-.42.23-.08,0-.08.08-.08.16-.08,0-.08.08-.08.23v2.5c0,.08.08.16.08.23s.08.08.17.16h.59v.39c-.08,0-.08.08-.08.08h-2.61v-.47Z"/>
          <path class="cls-3" d="M177.27,84.34h0v.16c0,.08,0,.16-.08.23v.08c-.18.08-.34.15-.59.15-.25.08-.42.16-.67.16-.17.08-.34.08-.51.08h-.08v-.47c-.09-.08-.09-.15-.09-.23v-.08c-.25.16-.41.31-.67.39-.25.08-.41.15-.67.23v-.78h.34c.17,0,.33,0,.5-.08.17-.08.34-.16.5-.23v-.08c.09-.08.09-.15.09-.15v-2.18c0-.24-.09-.39-.26-.55-.17-.08-.34-.15-.5-.15-.16-.08-.33-.08-.58-.08h-.09v-.54c.34,0,.59-.08.84-.08h.25c.09,0,.17.08.25.08,0,0,.09,0,.09-.08v-1.64c0-.08-.09-.15-.09-.24,0-.08-.08-.08-.16-.15h-.42c-.17-.08-.25-.08-.41-.08q-.08-.08-.08-.15c0-.08,0-.16.08-.16v-.16c.33,0,.58,0,.92-.08.26,0,.52-.08.76-.08.25-.08.42-.08.59-.16,0,0,0,.08.08.08v.16c-.08.08-.08.16-.17.31v6.47c.09.08.17.08.17.08.17.08.34.08.68,0M173.9,85.04c-.17.08-.34.08-.43.08-.34,0-.58,0-.84-.16-.25-.08-.42-.23-.59-.47-.25-.23-.34-.47-.42-.78-.17-.31-.17-.63-.17-.94,0-.39.08-.7.25-1.09.17-.31.42-.54.68-.78.17-.16.43-.32.68-.39.25-.08.5-.23.84-.23v-.08.54c-.26,0-.59.16-.76.31-.16.16-.33.31-.41.55-.09.23-.17.54-.17.86,0,.62.17,1.09.5,1.4.16.23.5.39.84.39v.78Z"/>
          <path class="cls-3" d="M180.88,82h0c0-.08,0-.23-.08-.39,0-.08,0-.23-.09-.32-.17-.15-.25-.23-.43-.31-.08-.08-.17-.08-.33-.08v-.7c.16-.08.25-.08.25-.08.33,0,.59.08.84.16.17.16.33.31.5.47.08.23.17.39.25.54.08.24.08.47.08.7v.62c0,.23-.08.47-.08.7v.63c0,.15.08.23.08.31.09.08.26.16.43.16.08,0,.17,0,.25-.08h.17v.47c-.17.08-.34.24-.59.31-.17,0-.34.08-.51.08-.25,0-.33-.08-.5-.15-.08,0-.17-.08-.26-.24v-.08c0-.08-.08-.08-.08-.15-.34.15-.59.31-.84.39v-.55h.08c.08,0,.17,0,.25-.08.17,0,.26-.08.34-.08q.08-.08.08-.15t.09-.15v-1.17h-.09c-.08,0-.25.08-.43.15-.08,0-.17.08-.33.08v-.47c.08,0,.16,0,.25-.08.25,0,.42-.08.5-.16,0,0,.09,0,.09-.08v-.08s.08,0,.08-.08v-.08ZM179.96,80.91c-.08,0-.08-.08-.17-.08-.17,0-.34.08-.42.08s-.17.08-.17.08c-.09.08-.16.16-.25.31-.09.16-.17.39-.26.55h-.17c-.08-.08-.17-.08-.25-.16-.08,0-.08-.08-.08-.08,0-.08.08-.23.08-.32.09-.15.09-.23.17-.31,0-.15.08-.15.08-.23.17-.08.43-.23.59-.31.26-.08.51-.16.68-.23h.17v.7ZM179.96,84.96l-.08.08c-.25.08-.5.15-.67.15-.09,0-.25-.08-.34-.08-.17-.08-.25-.16-.41-.23-.09-.16-.17-.31-.26-.47-.08-.23-.17-.39-.17-.62,0-.08.09-.23.09-.31s.08-.23.17-.31q0-.08.09-.08c.09-.08.25-.16.5-.23.18-.08.43-.08.68-.16.17-.08.34-.08.42-.15v.47c-.08,0-.17.08-.25.08-.17.08-.34.16-.42.16,0,0-.09.08-.09.16v.23c0,.23,0,.39.17.54.17.16.34.23.59.23v.55Z"/>
          <path class="cls-3" d="M189.37,84.34h0c.08.08,0,.08,0,.16v.23s0,.08-.08.08c-.09.08-.34.15-.51.15-.26.08-.5.16-.67.16-.25.08-.42.08-.5.08h-.09v-.15c-.08,0-.08-.08-.08-.16v-.39c0-.08-.09-.08-.09-.08-.16.16-.42.31-.59.39-.25.08-.5.15-.67.23v-.78h.34c.17,0,.34,0,.5-.08.16-.08.33-.16.42-.23.09,0,.09-.08.09-.08v-2.34c0-.24-.09-.39-.25-.55-.1-.08-.26-.15-.43-.15-.17-.08-.42-.08-.59-.08h-.08v-.54c.25,0,.59-.08.84-.08h.26c.08,0,.16.08.25.08v-.08h.08v-1.33c0-.15-.08-.23-.08-.31v-.24q-.09-.08-.25-.15h-.34c-.17-.08-.34-.08-.5-.08v-.31c0-.08.08-.16.08-.16.25,0,.59,0,.84-.08.34,0,.59-.08.85-.08.25-.08.41-.08.59-.16v.08q.08.08,0,.16c0,.08-.09.16-.09.31v.39c0,.16-.08.31-.08.47v5.38c0,.16.08.23.08.23q.09.08.17.08c.17.08.33.08.59,0M186.09,85.04c-.17.08-.34.08-.5.08-.26,0-.51,0-.76-.16-.25-.08-.5-.23-.67-.47-.17-.23-.34-.47-.43-.78-.08-.31-.17-.63-.17-.94,0-.39.09-.7.34-1.09.17-.31.34-.54.67-.78.16-.16.33-.32.58-.39.34-.08.59-.23.85-.23l.08-.08v.54c-.34,0-.59.16-.84.31-.17.16-.26.31-.34.55-.17.23-.17.54-.17.86,0,.62.17,1.09.42,1.4.26.23.59.39.93.39v.78Z"/>
          <path class="cls-3" d="M192.99,82h0v-.39c0-.08-.08-.23-.17-.32-.08-.15-.25-.23-.42-.31-.09-.08-.17-.08-.26-.08v-.7c.09-.08.17-.08.26-.08.33,0,.58.08.75.16.25.16.42.31.59.47.08.23.17.39.25.54v2.65c0,.15,0,.23.08.31.09.08.17.16.42.16.09,0,.17,0,.17-.08h.25v.31c0,.08-.08.08-.08.15-.17.08-.34.24-.5.31-.26,0-.42.08-.59.08-.18,0-.34-.08-.43-.15-.17,0-.17-.08-.25-.24,0,0,0-.08-.08-.08v-.15h-.08c-.25.15-.5.31-.76.39v-.55h.09c.08,0,.17,0,.25-.08.08,0,.25-.08.33-.08,0-.08.08-.08.08-.15s0-.08.08-.15v-1.17h-.08c-.08,0-.25.08-.41.15-.17,0-.25.08-.34.08v-.47c.09,0,.17,0,.26-.08.17,0,.33-.08.5-.16v-.08q.08,0,.08-.08v-.16ZM192.15,80.91c-.08,0-.17-.08-.26-.08-.17,0-.25.08-.33.08-.17,0-.17.08-.17.08-.09.08-.17.16-.25.31-.08.16-.25.39-.35.55h-.08c-.09-.08-.17-.08-.25-.16-.09,0-.09-.08-.09-.08,0-.08,0-.23.09-.32,0-.15.08-.23.08-.31q.08-.15.17-.23c.17-.08.34-.23.58-.31.25-.08.42-.16.67-.23h.17v.7ZM192.15,84.96s-.08.08-.17.08c-.17.08-.42.15-.58.15s-.25-.08-.42-.08c-.08-.08-.25-.16-.34-.23-.17-.16-.26-.31-.34-.47-.08-.23-.08-.39-.08-.62,0-.08,0-.23.08-.31,0-.08.08-.23.08-.31l.09-.08c.17-.08.33-.16.51-.23.25-.08.5-.08.67-.16.17-.08.33-.08.5-.15v.47c-.08,0-.17.08-.26.08-.17.08-.33.16-.42.16,0,0-.08.08-.08.16-.09.08-.09.15-.09.23,0,.23.09.39.25.54.17.16.33.23.59.23v.55Z"/>
          <path class="cls-3" d="M202.83,83.79h0c0,.08.08.08.08.08v.16c0,.08-.08.16-.08.16v.16c-.17.16-.42.31-.67.47-.26.08-.52.23-.77.31-.25,0-.42.08-.59.08h-.16v-1.01c.16.08.41.08.75.08.5,0,1.01-.16,1.43-.47M200.65,80.21c.08-.08.16-.08.33-.08.42,0,.75.08,1.01.31.26.15.43.39.59.62.08.31.17.55.25.78q0,.08.08.08c0,.08.08.08.08.08v.16s0,.08-.08.16v.07c-.17,0-.34.08-.59.08-.34,0-.59.08-.93.08-.25,0-.5,0-.75.08v-.54h.08c.17-.08.42-.08.59-.08h.33c.08,0,.08-.08.08-.16,0-.16-.08-.31-.17-.55-.17-.15-.25-.31-.42-.39-.17-.16-.34-.23-.5-.23v-.47ZM200.65,85.2c-.68-.08-1.1-.23-1.43-.54-.34-.24-.5-.55-.59-.93-.17-.31-.25-.63-.25-1.02,0-.54.17-1.01.34-1.32.25-.39.5-.63.84-.86.25-.08.42-.23.67-.23.17-.08.25-.08.43-.08v.47h-.09c-.34,0-.51.16-.76.39-.17.23-.25.55-.33.94l.08.08h1.1v.54h-1.1c-.08,0-.08.08-.08.16,0,.15.08.31.16.54.08.23.25.39.42.55.17.16.34.23.6.31v1.01Z"/>
          <path class="cls-3" d="M203.83,84.58h.26c.09,0,.17,0,.25-.08.17,0,.25-.15.25-.31v-2.73c0-.16-.25-.39-.68-.54v-.16c0-.08.08-.16.08-.16.17-.08.34-.08.59-.15.16,0,.42-.08.58-.16.17-.08.34-.08.42-.16h.09v.78h.08c.25-.23.59-.39.84-.55.34-.15.59-.23.85-.23s.5.08.75.16c.17.16.34.31.5.47.17.16.26.39.26.63.08.23.08.54.08.78v1.56c0,.23,0,.39.09.54v.08q0,.08.08.08c.07.08.16.08.33.16h.34v.39s0,.08-.08.08h-2.52v-.47h.34c.08,0,.17-.08.17-.08.08,0,.17-.08.17-.15s.08-.16.08-.39v-1.56c-.08-.24-.08-.39-.08-.55,0-.08,0-.23-.08-.31-.08-.16-.17-.24-.25-.31-.09-.08-.17-.16-.34-.23-.08,0-.25-.08-.42-.08s-.34.08-.58.15c-.17.08-.34.16-.42.23-.09,0-.09.08-.09.16-.08,0-.08.08-.08.23v2.5c0,.08.08.16.08.23q.09.08.17.16h.59v.39l-.08.08h-2.61v-.47Z"/>
          <path class="cls-3" d="M218.05,84.58h0q.08.08.08.15c0,.08,0,.16-.08.23v.08h-4.04v-.39c.17-.08.42-.08.59-.08s.25-.08.42-.08.34-.08.42-.23c0-.08.08-.23.08-.31v-4.68c0-.08-.08-.16-.08-.23-.08-.08-.17-.08-.34-.16h-.84v-.32q.08-.07.08-.16c.25,0,.5,0,.75-.07.26-.08.59-.16.85-.23.25-.08.42-.16.59-.24h.16q0,.08.08.08c-.08.07-.08.23-.08.31v5.61c0,.16.08.31.08.39.09.15.25.23.43.23.08,0,.25.08.42.08h.42Z"/>
          <path class="cls-3" d="M222.25,83.87c.17-.15.42-.31.59-.55.25-.31.42-.7.67-1.09h-.08s0-.08,0,0c-.34.15-.67.31-.92.39-.08,0-.17,0-.25.08v-.78h.17c.25,0,.42,0,.59-.08.17,0,.25-.08.42-.16,0,0,.08-.08.17-.15,0,0,.08-.08.08-.16,0-.16,0-.23.09-.31v-.31c0-.47-.09-.86-.26-1.17-.08-.39-.33-.63-.58-.86-.17-.15-.42-.23-.67-.23v-.55h.17c.59,0,1.01.08,1.43.39.34.23.67.54.84,1.01.17.39.25.86.25,1.4,0,.63-.08,1.17-.33,1.64-.25.55-.5,1.02-.93,1.4-.42.39-.92.78-1.43,1.02v-.94ZM220.4,85.59h0q-.09,0-.18-.08t-.08-.16v-.16c.67-.31,1.18-.62,1.6-.93.17-.08.34-.23.51-.39v.94q0,.08-.08.08c-.5.31-1.17.55-1.76.7ZM222.25,82.7c-.26,0-.43.08-.59.08-.42,0-.76-.16-1.01-.31-.34-.23-.59-.47-.75-.78-.17-.39-.25-.7-.34-1.17,0-.23.08-.54.16-.78.09-.31.25-.55.42-.78.16-.23.42-.39.67-.62.26-.08.51-.24.76-.31.25-.08.42-.08.67-.08v.55c-.08,0-.08-.08-.17-.08-.26,0-.5.08-.67.24-.25.15-.42.31-.5.62-.09.23-.17.47-.17.78,0,.47.08.78.26,1.09.17.23.34.47.59.62.25.08.42.16.67.16v.78Z"/>
          <path class="cls-3" d="M231.58,83.02h-1.26c-.08,0-.08.08-.08.08v2.26h-.67c-.25.08-.43.08-.51.08v-2.42h-1.09v-.78h1.09v-.08l.08-2.96h-.08c-.09.08-.17.23-.34.47-.17.16-.34.39-.5.63-.08.16-.17.23-.25.31v-.85c.08-.08.17-.16.25-.23.25-.39.5-.7.75-.94.17-.32.34-.47.43-.55.08,0,.17-.08.25-.08h.34c.08-.08.17-.08.25-.08v4.37h1.52c0,.08-.08.15-.08.31-.08.08-.08.15-.08.23v.23ZM227.97,83.02h-2.27v-.31c0-.08.08-.08.08-.15.17-.23.34-.47.59-.86.34-.31.59-.7.92-1.09.25-.23.42-.54.67-.85v.85c-.08.16-.25.31-.33.47-.26.31-.43.47-.51.7-.17.16-.26.31-.34.39q0,.08.08.08h1.1v.78Z"/>
        </g>
        <path class="cls-3" d="M236.71,77.87h0l.08.08.08.08c0,.08-.08.16-.17.23,0,.16-.08.24-.17.39-.08.08-.17.15-.25.24-.17.16-.34.23-.5.23s-.34,0-.51-.07h-.92c-.09,0-.09.07-.09.07-.09.16-.16.32-.26.47-.08.15-.08.23-.16.39v.07q0,.08.08.08c.08.07.25.15.43.23.25.08.5.23.67.32.25.07.5.23.76.31.16.15.42.23.5.39.42.23.67.46.83.78.18.23.26.54.26.86,0,.39-.17.78-.34,1.09-.17.31-.42.55-.76.78-.25.23-.59.39-.93.47-.33.16-.75.16-1,.16-.35,0-.68,0-.85-.08-.25-.08-.5-.16-.67-.23-.08-.16-.25-.23-.34-.31,0-.08-.08-.08-.08-.16,0-.07-.08-.15-.08-.23,0,0,.08-.08.08-.23,0-.08.08-.16.08-.24.09-.15.09-.23.09-.23.08,0,.08-.07.17-.07h.08c.08.23.25.39.5.54.17.23.42.31.67.46.26.08.6.16.84.16.42,0,.76-.16,1.01-.31.25-.24.34-.55.34-.94,0-.16,0-.39-.08-.55,0-.15-.08-.31-.25-.46-.17-.15-.34-.31-.68-.54-.25-.16-.5-.32-.76-.4-.33-.15-.59-.31-.84-.39-.25-.07-.42-.15-.5-.23,0-.08-.08-.08-.08-.16v-.32c.08-.23.17-.46.25-.7.17-.23.25-.46.42-.7.08-.3.17-.47.33-.7.1-.15.17-.31.26-.39q.09-.08.17-.08s.08-.08.17,0c.08-.08.25,0,.42,0h1.35c.08-.08.17-.08.34-.16"/>
      </g>
      <g>
        <polygon class="cls-2" points="181.02 37.64 181.02 28.6 188.07 28.6 188.07 30.12 182.99 30.12 182.99 32.09 187.75 32.09 187.75 33.69 182.99 33.69 182.99 36.12 188.24 36.12 188.24 37.64 181.02 37.64"/>
        <polygon class="cls-2" points="192 37.64 192 30.12 189.22 30.12 189.22 28.6 196.75 28.6 196.75 30.12 193.89 30.12 193.89 37.64 192 37.64"/>
        <path class="cls-2" d="M197.98,37.64v-9.03h7.04v1.52h-5.15v1.97h4.74v1.6h-4.74v2.43h5.32v1.52h-7.2ZM200.35,28.07l.91-1.82h2.05l-1.72,1.82h-1.24Z"/>
        <polygon class="cls-2" points="208.96 37.64 208.96 30.12 206.09 30.12 206.09 28.6 213.63 28.6 213.63 30.12 210.84 30.12 210.84 37.64 208.96 37.64"/>
        <rect class="cls-1" x="214.85" y="28.6" width="1.88" height="9.04"/>
        <path class="cls-2" d="M224.6,34.29l1.88.61c-.25.99-.74,1.67-1.39,2.2-.65.46-1.55.68-2.55.68-1.22,0-2.28-.38-3.11-1.22-.82-.83-1.23-1.97-1.23-3.34,0-1.52.41-2.74,1.23-3.57.82-.84,1.89-1.21,3.19-1.21,1.15,0,2.13.3,2.87.99.41.38.73.91.98,1.67l-1.88.38c-.16-.45-.41-.83-.74-1.06-.32-.3-.82-.45-1.32-.45-.64,0-1.22.3-1.71.76-.41.46-.66,1.29-.66,2.35,0,1.14.24,1.97.66,2.43.41.46.98.76,1.71.76.5,0,.91-.15,1.32-.53.32-.3.58-.76.74-1.45"/>
        <path class="cls-2" d="M236.72,37.64h-2.13l-.81-2.05h-1.88v-1.52h1.23l-1.23-3.34v-2.13h.98l3.85,9.04ZM231.89,35.59h-1.88l-.82,2.05h-2.06l3.69-9.04h1.07v2.13h-.08l-1.23,3.34h1.31v1.52Z"/>
        <polygon class="cls-2" points="78.8 37.64 78.8 28.6 85.84 28.6 85.84 30.12 80.77 30.12 80.77 32.09 85.52 32.09 85.52 33.69 80.77 33.69 80.77 36.12 86.01 36.12 86.01 37.64 78.8 37.64"/>
        <path class="cls-2" d="M87.15,34.68l1.89-.15c.08.61.33,1.06.65,1.29.41.3.82.45,1.4.45.66,0,1.07-.15,1.39-.38.32-.23.49-.53.49-.91,0-.15-.08-.38-.17-.53-.16-.15-.41-.23-.73-.38-.17-.08-.74-.23-1.48-.38-1.07-.23-1.8-.53-2.21-.91-.57-.45-.9-1.06-.9-1.82,0-.46.16-.91.41-1.29.32-.38.73-.68,1.23-.91.48-.23,1.14-.3,1.88-.3,1.15,0,2.05.23,2.71.76.56.46.9,1.14.9,1.98l-1.88.07c-.08-.45-.25-.83-.57-.99-.25-.23-.65-.3-1.15-.3-.57,0-1.06.08-1.31.3-.24.15-.32.31-.32.53s.08.45.24.61c.25.15.83.38,1.8.6.9.15,1.64.38,2.05.61.4.23.81.53,1.07.91.24.46.32.91.32,1.45s-.08,1.06-.41,1.52c-.33.45-.73.76-1.31.99-.57.23-1.23.3-2.05.3-1.23,0-2.12-.23-2.78-.76-.66-.53-.98-1.29-1.15-2.35"/>
        <path class="cls-2" d="M102.55,34.29l1.89.61c-.34.99-.74,1.67-1.47,2.2-.66.46-1.48.68-2.47.68-1.3,0-2.29-.38-3.11-1.22-.82-.83-1.23-1.97-1.23-3.34,0-1.52.41-2.74,1.23-3.57.82-.84,1.88-1.21,3.19-1.21,1.15,0,2.13.3,2.87.99.4.38.73.91.9,1.67l-1.89.38c-.08-.45-.33-.83-.65-1.06-.41-.3-.82-.45-1.32-.45-.74,0-1.3.3-1.71.76-.42.46-.67,1.29-.67,2.35,0,1.14.24,1.97.67,2.43.41.46.97.76,1.63.76.57,0,.98-.15,1.31-.53.41-.3.66-.76.82-1.45"/>
        <path class="cls-2" d="M106.08,28.6h1.88v4.86c0,.83,0,1.29.08,1.52.08.38.24.68.58.91.32.22.73.38,1.31.38.49,0,.9-.15,1.23-.38.24-.15.41-.46.49-.76,0-.3.08-.84.08-1.52v-5.01h1.88v4.71c0,1.14-.08,1.9-.16,2.35-.08.45-.24.84-.58,1.14-.24.3-.65.53-1.06.76-.49.15-1.15.23-1.89.23-.9,0-1.56-.08-2.05-.3-.49-.15-.81-.46-1.07-.76-.32-.31-.49-.69-.57-.99-.16-.53-.16-1.29-.16-2.35v-4.79Z"/>
        <polygon class="cls-2" points="115.66 37.64 115.66 28.6 122.63 28.6 122.63 30.12 117.54 30.12 117.54 32.09 122.29 32.09 122.29 33.69 117.54 33.69 117.54 36.12 122.87 36.12 122.87 37.64 115.66 37.64"/>
        <polygon class="cls-2" points="124.42 37.64 124.42 28.68 126.31 28.68 126.31 36.12 131.14 36.12 131.14 37.64 124.42 37.64"/>
        <path class="cls-2" d="M141.06,37.64h-2.13l-.82-2.05h-1.89v-1.52h1.32l-1.32-3.34v-2.13h.98l3.86,9.04ZM136.22,35.59h-1.88l-.82,2.05h-2.05l3.77-9.04h.98v2.13l-1.3,3.34h1.3v1.52Z"/>
        <path class="cls-2" d="M149.65,28.6c.57,0,1.06.08,1.39.15.49.15.98.45,1.39.83.41.38.74.91.9,1.44.25.61.33,1.29.33,2.2,0,.69-.08,1.37-.33,1.9-.24.68-.58,1.22-.99,1.59-.32.3-.81.53-1.3.76-.41.08-.82.15-1.39.15v-1.52c.25,0,.41-.08.57-.08.33-.08.58-.22.74-.38.25-.15.41-.45.49-.91.17-.38.24-.91.24-1.59,0-.76-.07-1.29-.24-1.67-.08-.38-.25-.61-.49-.84-.25-.22-.57-.38-.9-.46-.08,0-.25,0-.41-.08v-1.52ZM145.72,28.6h3.93v1.52h-2.05v6h2.05v1.52h-3.93v-9.04Z"/>
        <polygon class="cls-2" points="155.31 37.64 155.31 28.6 162.35 28.6 162.35 30.12 157.19 30.12 157.19 32.09 161.95 32.09 161.95 33.69 157.19 33.69 157.19 36.12 162.51 36.12 162.51 37.64 155.31 37.64"/>
        <path class="cls-2" d="M171.77,28.6c.57,0,.98.08,1.31.15.57.15,1.07.45,1.47.83.33.38.66.91.9,1.44.17.61.25,1.29.25,2.2,0,.69-.08,1.37-.25,1.9-.24.68-.57,1.22-1.06,1.59-.34.3-.74.53-1.31.76-.33.08-.82.15-1.31.15v-1.52c.16,0,.41-.08.49-.08.33-.08.57-.22.82-.38.16-.15.32-.45.49-.91.08-.38.17-.91.17-1.59,0-.76-.08-1.29-.17-1.67-.16-.38-.33-.61-.57-.84-.24-.22-.49-.38-.9-.46-.08,0-.17,0-.32-.08v-1.52ZM167.76,28.6h4.02v1.52h-2.05v6h2.05v1.52h-4.02v-9.04Z"/>
        <rect class="cls-1" x="177.34" y="28.6" width="1.88" height="9.04"/>
        <polygon class="cls-2" points="81.34 51.99 81.34 48.12 77.82 42.95 80.11 42.95 82.33 46.52 84.53 42.95 86.75 42.95 83.23 48.19 83.23 51.99 81.34 51.99"/>
        <polygon class="cls-2" points="91.33 51.99 91.33 42.95 93.22 42.95 97.15 48.95 97.15 42.95 98.87 42.95 98.87 51.99 96.98 51.99 93.14 46.06 93.14 51.99 91.33 51.99"/>
        <path class="cls-2" d="M100.92,42.95h1.88v4.86c0,.76,0,1.29.09,1.52.08.38.24.68.57.91.32.23.73.3,1.3.3.49,0,.9-.08,1.23-.3.24-.23.41-.46.49-.76,0-.31.08-.84.08-1.59v-4.93h1.89v4.7c0,1.07-.08,1.82-.17,2.28-.08.45-.24.83-.57,1.14-.24.31-.65.61-1.06.76-.49.15-1.15.3-1.88.3-.9,0-1.56-.15-2.05-.3-.49-.23-.82-.46-1.06-.84-.33-.31-.5-.61-.58-.99-.08-.53-.16-1.29-.16-2.28v-4.78Z"/>
        <polygon class="cls-2" points="112.63 51.99 112.63 44.47 109.77 44.47 109.77 42.95 117.3 42.95 117.3 44.47 114.51 44.47 114.51 51.99 112.63 51.99"/>
        <path class="cls-2" d="M122.46,42.95h.16c.9,0,1.64.08,2.12.3.41.15.82.38,1.07.76.33.38.41.91.41,1.44,0,.68-.16,1.21-.57,1.67-.42.46-1.07.68-1.89.84.41.23.74.46.98.76.33.3.66.76,1.15,1.44l1.15,1.82h-2.3l-1.39-1.97c-.4-.76-.73-1.14-.89-1.37v-1.9c.57,0,.89-.08,1.06-.15.24-.08.41-.15.58-.38.08-.15.16-.38.16-.69s-.08-.53-.25-.68c-.17-.23-.42-.3-.74-.38h-.81v-1.52ZM118.61,51.99v-9.04h3.85v1.52h-1.97v2.28h1.97v1.9c-.25-.15-.41-.3-.66-.38-.16-.08-.49-.08-.9-.08h-.4v3.8h-1.89Z"/>
        <rect class="cls-1" x="128.03" y="42.95" width="1.89" height="9.04"/>
        <path class="cls-2" d="M137.78,48.65l1.88.53c-.33.99-.74,1.75-1.39,2.2-.65.46-1.55.76-2.54.76-1.3,0-2.29-.45-3.11-1.29-.82-.76-1.22-1.89-1.22-3.34s.41-2.65,1.22-3.49c.82-.76,1.88-1.22,3.2-1.22,1.15,0,2.13.38,2.87.99.41.3.73.91.98,1.59l-1.97.46c-.07-.46-.32-.83-.65-1.14-.33-.23-.83-.38-1.32-.38-.73,0-1.23.23-1.71.69-.41.53-.66,1.29-.66,2.35,0,1.14.25,1.98.66,2.43.41.53.98.76,1.71.76.49,0,.91-.15,1.32-.45.32-.31.57-.84.74-1.45"/>
        <rect class="cls-1" x="141.22" y="42.95" width="1.96" height="9.04"/>
        <path class="cls-2" d="M149.16,42.8c1.4,0,2.54.45,3.36,1.21.82.84,1.22,1.97,1.22,3.42s-.4,2.58-1.22,3.42c-.83.84-1.97,1.29-3.36,1.29v-1.6c.82,0,1.4-.23,1.89-.76.49-.53.73-1.37.73-2.35,0-1.07-.24-1.83-.65-2.35-.49-.53-1.15-.76-1.97-.76v-1.52ZM149.16,42.42v-1.82h1.81l-1.81,1.82ZM144.58,47.51c0-.91.17-1.75.41-2.35.25-.46.57-.84.9-1.22.41-.3.81-.6,1.22-.76.58-.23,1.31-.38,2.05-.38v1.52c-.74,0-1.39.23-1.88.76-.49.53-.74,1.29-.74,2.35,0,.99.25,1.82.74,2.35.49.53,1.14.76,1.88.76v1.6c-1.39,0-2.46-.46-3.35-1.29-.82-.76-1.23-1.9-1.23-3.34ZM149.16,40.6v1.82h-1.13l.9-1.82h.24Z"/>
        <polygon class="cls-2" points="155.31 51.99 155.31 42.95 157.19 42.95 161.03 48.95 161.03 42.95 162.84 42.95 162.84 51.99 160.87 51.99 157.11 46.06 157.11 51.99 155.31 51.99"/>
      </g>
    </g>
  </g>
</svg>